HIERARCHY
ROOT Hips
{
	OFFSET 0.00000 0.00000 0.00000
	CHANNELS 6 Xposition Yposition Zposition Yrotation Zrotation Xrotation 
	JOINT Lumbar
	{
		OFFSET 0 0 0
		CHANNELS 3 Zrotation Xrotation Yrotation
		JOINT Neck
		{
			OFFSET 0.00 0.2701 0.00
			CHANNELS 3 Zrotation Xrotation Yrotation
			End Site
			{
				OFFSET 0.00 0.1379 0.00
			}
		}
		JOINT RightShoulder
		{
			OFFSET 0.0119 0.2289 0.1181
			CHANNELS 3 Zrotation Xrotation Yrotation
			JOINT RightElbow
			{
				OFFSET 0.00 -0.1475 0.00
				CHANNELS 2 Zrotation Yrotation
				JOINT RightWrist
				{
					OFFSET 0.00 -0.1605 0.00
					CHANNELS 2 Zrotation Xrotation
					End Site
					{
						OFFSET 0.0040 -0.1068 0.0006
					}
				}
			}
		}
		JOINT LeftShoulder
		{
			OFFSET 0.0119 0.2289 -0.1181
			CHANNELS 3 Zrotation Xrotation Yrotation
			JOINT LeftElbow
			{
				OFFSET 0.00 -0.1475 0.00
				CHANNELS 2 Zrotation Yrotation
				JOINT LeftWrist
				{
					OFFSET 0.00 -0.1605 0.00
					CHANNELS 2 Zrotation Xrotation
					End Site
					{
						OFFSET 0.0040 -0.1068 -0.0006
					}
				}
			}
		}
	}
	JOINT RightHip
	{
		OFFSET 0.0316 -0.0424 0.0458
		CHANNELS 3 Zrotation Xrotation Yrotation
		JOINT RightKnee
		{
			OFFSET 0.00 -0.2438 0.00
			CHANNELS 1 Zrotation
			JOINT RightAnkle
			{
				OFFSET 0.00 -0.2449 0.00
				CHANNELS 3 Zrotation Xrotation Yrotation
				End Site
				{
					OFFSET 0.1237 -0.0542 0.0051
				}
			}
		}
	}
	JOINT LeftHip
	{
		OFFSET 0.0316 -0.0424 -0.0458
		CHANNELS 3 Zrotation Xrotation Yrotation
		JOINT LeftKnee
		{
			OFFSET 0.00 -0.2438 0.00
			CHANNELS 1 Zrotation
			JOINT LeftAnkle
			{
				OFFSET 0.00 -0.2449 0.00
				CHANNELS 3 Zrotation Xrotation Yrotation
				End Site
				{
					OFFSET 0.1237 -0.0542 -0.0051
				}
			}
		}
	}
}
MOTION
Frames: 28
Frame Time: 0.02
0.83978 -0.00214 0.56503 1112.99281 -42.62909 -6.77982 50.91587 3.45379 7.55058 -5.84331 -5.77793 -2.11994 -36.47398 -6.94738 7.26994 73.73893 117.93752 18.63453 4.24275 -31.36202 8.37347 -6.57423 72.56328 -127.88866 21.13996 -6.11549 19.8083 10.30308 12.03536 -0.45073 5.46428 -34.53866 -18.8666 68.99471 15.90106 3.7794 -28.67341 -11.95397 4.09822 4.52011
0.84616 -0.00214 0.55454 1113.03462 -42.46215 -6.77565 51.63447 3.11772 6.99069 -6.35595 -5.43083 -2.11994 -35.98972 -6.84488 7.07771 73.18884 115.08341 18.31848 3.67507 -31.64518 8.01445 -5.93166 72.668 -124.70314 20.61936 -5.49125 19.80194 9.3463 8.15147 -2.93681 2.90795 -29.9156 -16.75078 68.29625 15.4425 3.48819 -29.73826 -11.8614 4.09602 4.51443
0.85249 -0.00173 0.54341 1113.28008 -42.24658 -6.70633 52.41469 2.74184 6.4194 -6.98162 -5.0183 -2.11994 -35.41936 -6.75876 6.95405 72.48821 110.81971 17.63209 2.88652 -31.84266 7.82466 -5.4624 72.4999 -118.75389 19.29757 -4.40675 20.14922 8.20001 1.25899 -6.19011 0.46476 -21.77656 -12.75931 67.41112 14.79642 2.99847 -30.73424 -11.6732 4.09514 4.50454
0.85879 -0.0015 0.53258 1113.4535 -42.05077 -6.66446 53.157 2.38108 5.84835 -7.5497 -4.63491 -2.11994 -34.88909 -6.67084 6.80727 71.87682 107.34722 17.15702 2.22241 -32.07641 7.55498 -4.9172 72.46689 -114.44968 18.47317 -3.59547 20.39473 7.14137 -4.00356 -9.1743 -1.98922 -15.52139 -9.76401 66.58421 14.24851 2.68287 -31.72693 -11.51802 4.08966 4.49398
0.8653 -0.00129 0.5217 1113.53721 -41.86526 -6.62935 53.94897 2.03129 5.29823 -8.14777 -4.25091 -2.11994 -34.35307 -6.5618 6.62683 71.17997 103.22755 16.5033 1.45257 -32.32251 7.28196 -4.3416 72.39702 -108.62117 17.13601 -2.53105 20.39281 6.06559 -10.2983 -11.83688 -4.64857 -8.14809 -6.21054 65.86063 13.64495 2.03224 -32.87789 -11.40581 4.09929 4.49339
0.87136 -0.00095 0.5108 1113.85974 -41.64672 -6.56615 54.64672 1.65009 4.70092 -8.70785 -3.85456 -2.11994 -33.80973 -6.49947 6.53274 70.62426 100.13011 16.13446 0.8527 -32.5214 7.06528 -3.88225 72.33329 -105.22297 16.63994 -1.87105 20.98931 4.98948 -15.19344 -15.3361 -6.83795 -2.22901 -3.35259 64.8828 13.11111 2.01152 -33.67897 -11.18329 4.07876 4.47162
0.87627 -0.0003 0.49992 1114.76341 -41.34785 -6.43467 55.09903 1.18864 3.98749 -9.14702 -3.43158 -2.11994 -33.26143 -6.56444 6.66003 70.49792 100.13268 16.61562 0.76724 -32.62019 6.92309 -3.64151 72.37867 -109.75843 18.88449 -2.52858 23.15717 3.89866 -15.41034 -21.07562 -7.78537 -1.25266 -2.90983 63.22663 12.84242 3.94866 -33.52044 -10.66129 3.97028 4.3893
0.88071 0.00046 0.48906 1115.9062 -41.01796 -6.27882 55.4483 0.69807 3.22545 -9.54144 -3.00044 -2.11994 -32.71034 -6.67555 6.87216 70.51847 101.21853 17.39759 0.86157 -32.67307 6.83962 -3.52305 72.43435 -116.7345 21.96173 -3.59313 25.91381 2.82579 -14.1401 -27.60417 -8.25405 -1.8369 -3.21865 61.32669 12.64706 6.49712 -33.01242 -10.03488 3.83206 4.28632
0.88532 0.00115 0.47826 1116.95775 -40.70231 -6.13849 55.82423 0.22268 2.47775 -9.94843 -2.57887 -2.11994 -32.16401 -6.76297 7.04516 70.46897 101.86323 18.06286 0.88125 -32.74027 6.75873 -3.39212 72.46691 -122.21062 24.50241 -4.4097 28.39735 1.78519 -13.61023 -33.69901 -8.91893 -1.65083 -3.15344 59.55304 12.39953 8.65021 -32.66901 -9.46823 3.71096 4.19516
0.89012 0.00195 0.46718 1117.94114 -40.3826 -5.97639 56.28675 -0.26374 1.76042 -10.39251 -2.12989 -2.11994 -31.59835 -6.86039 7.22167 70.42611 102.27383 18.6433 0.86762 -32.83035 6.56537 -3.09243 72.56574 -129.19516 27.66567 -5.46842 30.91704 0.56815 -12.90798 -40.15455 -9.67047 -1.6012 -3.16059 57.70498 12.22 11.28128 -32.29819 -8.84643 3.57611 4.09427
0.89441 0.00255 0.45668 1119.12273 -40.06682 -5.8556 56.5446 -0.73181 0.97087 -10.74687 -1.73735 -2.11994 -31.07539 -6.95035 7.41178 70.40882 103.4086 19.46103 0.96364 -32.86518 6.61127 -3.16181 72.53527 -133.71128 29.76238 -6.13543 33.49604 -0.27585 -12.17725 -46.01522 -10.12939 -1.68388 -3.21992 55.95934 11.92493 13.07891 -31.90339 -8.31574 3.46103 4.00795
0.89743 0.00257 0.44781 1120.77557 -39.75107 -5.84702 56.25306 -1.15708 -0.02637 -10.86635 -1.49963 -2.11994 -30.65473 -6.98457 7.60272 70.40452 106.6286 20.99873 1.36643 -32.73989 7.36319 -4.30201 72.12282 -130.30883 28.51588 -5.5339 36.09686 -0.08209 -11.67952 -50.21022 -9.89487 -1.76142 -3.24598 54.53327 11.23997 12.30003 -31.5184 -8.06482 3.42341 3.97434
0.89995 0.00238 0.43954 1122.62258 -39.44416 -5.88232 55.76029 -1.56001 -1.09041 -10.89592 -1.31989 -2.11994 -30.28063 -7.01329 7.80608 70.42535 110.48737 22.74272 1.86638 -32.56421 8.34316 -5.79478 71.58562 -124.43432 26.20287 -4.54067 38.73373 0.48532 -11.1986 -53.74011 -9.38365 -1.9341 -3.30698 53.2242 10.44663 10.68387 -31.12346 -7.90943 3.40399 3.95484
0.90269 0.0023 0.43099 1124.39028 -39.14541 -5.90341 55.36584 -1.96297 -2.11108 -10.9651 -1.11595 -2.11994 -29.89631 -7.06102 8.01506 70.45003 113.82369 24.30099 2.29047 -32.42478 9.17712 -7.07 71.12138 -120.0515 24.5154 -3.78887 41.35236 0.87452 -10.73011 -57.4637 -9.00086 -2.07263 -3.35666 51.87719 9.7391 9.53672 -30.73954 -7.70877 3.36576 3.9239
0.90546 0.00218 0.42245 1126.12586 -38.79369 -5.90073 54.93988 -2.40914 -3.18996 -11.039 -0.90264 -2.11994 -29.46561 -7.04376 8.18343 70.41657 118.15363 26.25014 2.85109 -32.22863 10.18692 -8.58577 70.58792 -114.24537 22.28076 -2.79153 44.00429 1.29908 -10.12968 -61.68845 -8.58867 -2.2229 -3.41096 50.4561 8.88139 8.04474 -30.31576 -7.51125 3.37018 3.91307
0.90805 0.00209 0.41405 1127.97494 -38.55536 -5.95663 54.53179 -2.76033 -4.16084 -11.08112 -0.72267 -2.11994 -29.1427 -7.15606 8.43328 70.50666 120.58113 27.43991 3.1524 -32.13765 10.89034 -9.68996 70.1698 -110.72508 20.898 -2.19693 46.58182 1.7393 -9.82355 -64.68248 -8.17988 -2.35407 -3.45584 49.22175 8.30765 7.05467 -29.97742 -7.33247 3.29149 3.86448
0.91026 0.00213 0.40589 1130.05726 -38.62391 -6.17791 54.23409 -2.848 -4.8331 -11.06721 -0.62147 -2.11994 -29.10582 -7.66082 8.94696 70.94526 117.34551 26.39875 2.67676 -32.36391 10.63411 -9.5051 70.09315 -114.64751 22.33594 -2.90137 48.98997 2.12554 -10.35148 -64.59029 -7.8371 -2.39073 -3.45619 48.46402 8.56319 7.73445 -29.87771 -7.17243 2.97041 3.7039
0.9123 0.0022 0.39786 1132.25162 -38.80736 -6.45387 53.95981 -2.84181 -5.3907 -11.02264 -0.55185 -2.11994 -29.17603 -8.28976 9.53406 71.50414 112.21717 24.60089 1.94313 -32.69546 10.07108 -8.90408 70.13801 -120.857 24.62945 -4.00762 51.30921 2.51608 -11.17225 -63.24884 -7.5121 -2.40518 -3.44646 47.89356 9.10437 8.93026 -29.86618 -7.03025 2.56688 3.50579
0.9144 0.00224 0.38978 1134.4153 -38.94087 -6.69578 53.66735 -2.88299 -5.9906 -10.98616 -0.46705 -2.11994 -29.19723 -8.83967 10.05949 71.99831 108.11398 23.20215 1.3507 -32.96934 9.68747 -8.53835 70.13249 -125.6479 26.38564 -4.86562 53.63851 2.90784 -11.856 -62.37934 -7.18823 -2.42896 -3.44134 47.24524 9.50227 9.83514 -29.81569 -6.8868 2.20665 3.32772
0.91655 0.00234 0.3817 1136.50193 -39.06443 -6.97888 53.39888 -2.90404 -6.63603 -10.97191 -0.38717 -2.11994 -29.2209 -9.48454 10.70443 72.53568 103.32958 21.57552 0.65947 -33.28221 9.14741 -7.99639 70.1032 -131.90784 28.71446 -5.97918 56.10337 3.29748 -12.57729 -61.89836 -6.81418 -2.44258 -3.42825 46.56954 9.95354 10.9501 -29.75934 -6.71787 1.82205 3.13732
0.91857 0.00233 0.37365 1138.77129 -39.23666 -7.18754 53.08957 -2.94432 -7.15632 -10.90434 -0.30452 -2.11994 -29.26501 -9.9615 11.11832 73.01155 99.51565 20.24373 0.11293 -33.5404 8.85189 -7.71018 70.15262 -135.74225 30.08965 -6.67119 58.25695 3.68988 -13.26325 -60.3115 -6.55421 -2.49281 -3.44076 45.99477 10.36258 11.75999 -29.73706 -6.60481 1.46888 2.96377
0.92031 0.00205 0.36568 1141.5319 -39.50839 -7.18595 52.65551 -3.06637 -7.37759 -10.70568 -0.20061 -2.11994 -29.3326 -9.9418 10.87096 73.28554 98.75421 19.88591 0.01534 -33.61437 9.35294 -8.29859 70.40117 -131.80882 28.43261 -6.01213 59.63561 4.06639 -14.01492 -56.05957 -6.59424 -2.45183 -3.41967 45.64467 10.58889 11.61354 -29.78194 -6.6433 1.21838 2.84373
0.92193 0.00166 0.35773 1144.46877 -39.82621 -7.10554 52.18207 -3.20985 -7.47329 -10.45363 -0.09406 -2.11994 -29.41803 -9.74945 10.38981 73.49392 99.04503 19.85342 0.07392 -33.63103 10.1012 -9.14513 70.72305 -125.45591 25.82462 -4.93221 60.69359 4.44656 -14.68054 -50.73237 -6.75306 -2.48084 -3.44198 45.39045 10.76305 11.14543 -29.85944 -6.73672 1.00304 2.74228
0.9236 0.00131 0.34975 1147.31486 -40.12751 -7.05551 51.7314 -3.34015 -7.61374 -10.22034 0.00823 -2.11994 -29.49958 -9.6378 10.01864 73.7338 98.91422 19.68898 0.06996 -33.67945 10.7044 -9.82727 71.00466 -120.56669 23.7846 -4.10671 61.85497 4.83954 -15.22726 -45.83767 -6.86444 -2.61176 -3.51724 45.09738 10.95872 10.81902 -29.92522 -6.8033 0.77438 2.63373
0.92531 0.00103 0.34188 1150.21063 -40.41474 -7.03109 51.25951 -3.48255 -7.80137 -10.00761 0.12401 -2.11994 -29.56736 -9.5207 9.63282 73.97044 98.49242 19.4359 0.02301 -33.70859 11.4339 -10.69144 71.32048 -114.24732 21.21012 -3.03353 63.18577 5.1771 -16.43731 -41.10817 -6.94384 -2.19341 -3.29525 44.79178 11.17208 10.52364 -29.9798 -6.87808 0.53176 2.51826
0.92689 0.00056 0.33376 1153.04258 -40.73998 -6.93301 50.82387 -3.60501 -7.86348 -9.74171 0.21058 -2.11994 -29.66625 -9.37276 9.22288 74.19714 98.93426 19.44859 0.10407 -33.76142 11.96456 -11.24624 71.57999 -110.26638 19.49981 -2.36457 64.09651 5.62423 -16.25902 -35.8306 -7.12385 -2.91597 -3.69043 44.53156 11.33435 10.08736 -30.06579 -6.94908 0.3275 2.42204
0.92815 -0.00035 0.32502 1155.65946 -41.16456 -6.65834 50.48457 -3.67628 -7.60086 -9.32608 0.23475 -2.11994 -29.84911 -9.1774 8.7869 74.40704 101.65775 20.17111 0.51792 -33.90597 11.87288 -10.85758 71.67243 -113.64156 20.51194 -2.97003 63.85753 6.42961 -12.12605 -29.01063 -7.49748 -6.9342 -5.88148 44.38089 11.35123 9.27916 -30.21751 -6.99169 0.22211 2.37511
0.92928 -0.00145 0.316 1158.204 -41.62415 -6.31093 50.18609 -3.72524 -7.21865 -8.86218 0.22622 -2.11994 -30.06132 -8.95705 8.33722 74.60908 105.19497 21.14392 1.05275 -34.07347 11.57603 -10.1551 71.70336 -119.3863 22.40375 -3.98473 63.21919 7.33476 -6.63145 -21.7381 -7.9753 -12.06093 -8.67 44.27012 11.32032 8.34765 -30.40167 -7.02939 0.15429 2.347
